<svg width="169" height="24" viewBox="0 0 169 24" fill="none" xmlns="http://www.w3.org/2000/svg">
<path d="M7.296 23V4.824H0.128V0.599998H19.648V4.824H12.48V23H7.296ZM33.0048 23.384C31.2341 23.384 29.5914 23.096 28.0768 22.52C26.5834 21.944 25.2821 21.1333 24.1727 20.088C23.0848 19.0427 22.2314 17.816 21.6128 16.408C21.0154 15 20.7168 13.464 20.7168 11.8C20.7168 10.136 21.0154 8.6 21.6128 7.192C22.2314 5.784 23.0954 4.55733 24.2048 3.512C25.3141 2.46667 26.6154 1.656 28.1088 1.08C29.6021 0.503999 31.2234 0.216 32.9728 0.216C34.7434 0.216 36.3647 0.503999 37.8368 1.08C39.3301 1.656 40.6208 2.46667 41.7088 3.512C42.8181 4.55733 43.6821 5.784 44.3008 7.192C44.9194 8.57867 45.2288 10.1147 45.2288 11.8C45.2288 13.464 44.9194 15.0107 44.3008 16.44C43.6821 17.848 42.8181 19.0747 41.7088 20.12C40.6208 21.144 39.3301 21.944 37.8368 22.52C36.3647 23.096 34.7541 23.384 33.0048 23.384ZM32.9728 18.968C33.9754 18.968 34.8928 18.7973 35.7248 18.456C36.5781 18.1147 37.3248 17.624 37.9648 16.984C38.6048 16.344 39.0954 15.5867 39.4368 14.712C39.7994 13.8373 39.9808 12.8667 39.9808 11.8C39.9808 10.7333 39.7994 9.76267 39.4368 8.888C39.0954 8.01333 38.6048 7.256 37.9648 6.616C37.3461 5.976 36.6101 5.48533 35.7568 5.144C34.9034 4.80267 33.9754 4.632 32.9728 4.632C31.9701 4.632 31.0421 4.80267 30.1888 5.144C29.3568 5.48533 28.6208 5.976 27.9808 6.616C27.3408 7.256 26.8394 8.01333 26.4768 8.888C26.1354 9.76267 25.9648 10.7333 25.9648 11.8C25.9648 12.8453 26.1354 13.816 26.4768 14.712C26.8394 15.5867 27.3301 16.344 27.9488 16.984C28.5888 17.624 29.3354 18.1147 30.1888 18.456C31.0421 18.7973 31.9701 18.968 32.9728 18.968ZM53.4523 23V4.824H46.2843V0.599998H65.8043V4.824H58.6363V23H53.4523ZM73.3615 9.624H84.1455V13.656H73.3615V9.624ZM73.7455 18.84H85.9375V23H68.5935V0.599998H85.5215V4.76H73.7455V18.84ZM90.0623 23V0.599998H94.3503L103.886 16.408H101.614L110.99 0.599998H115.246L115.31 23H110.446L110.414 8.056H111.31L103.822 20.632H101.486L93.8383 8.056H94.9263V23H90.0623ZM120.625 23V0.599998H131.569C134.385 0.599998 136.497 1.13333 137.905 2.2C139.334 3.26667 140.049 4.67467 140.049 6.424C140.049 7.59733 139.761 8.62133 139.185 9.496C138.609 10.3493 137.819 11.0107 136.817 11.48C135.814 11.9493 134.662 12.184 133.361 12.184L133.969 10.872C135.377 10.872 136.625 11.1067 137.713 11.576C138.801 12.024 139.643 12.696 140.241 13.592C140.859 14.488 141.169 15.5867 141.169 16.888C141.169 18.808 140.411 20.312 138.897 21.4C137.382 22.4667 135.153 23 132.209 23H120.625ZM125.777 19.096H131.825C133.169 19.096 134.182 18.8827 134.865 18.456C135.569 18.008 135.921 17.304 135.921 16.344C135.921 15.4053 135.569 14.712 134.865 14.264C134.182 13.7947 133.169 13.56 131.825 13.56H125.393V9.784H130.929C132.187 9.784 133.147 9.57067 133.809 9.144C134.491 8.696 134.833 8.024 134.833 7.128C134.833 6.25333 134.491 5.60267 133.809 5.176C133.147 4.728 132.187 4.504 130.929 4.504H125.777V19.096ZM155.974 23.384C154.203 23.384 152.56 23.096 151.046 22.52C149.552 21.944 148.251 21.1333 147.141 20.088C146.054 19.0427 145.2 17.816 144.582 16.408C143.984 15 143.686 13.464 143.686 11.8C143.686 10.136 143.984 8.6 144.582 7.192C145.2 5.784 146.064 4.55733 147.174 3.512C148.283 2.46667 149.584 1.656 151.078 1.08C152.571 0.503999 154.192 0.216 155.942 0.216C157.712 0.216 159.333 0.503999 160.806 1.08C162.299 1.656 163.59 2.46667 164.678 3.512C165.787 4.55733 166.651 5.784 167.27 7.192C167.888 8.57867 168.198 10.1147 168.198 11.8C168.198 13.464 167.888 15.0107 167.27 16.44C166.651 17.848 165.787 19.0747 164.678 20.12C163.59 21.144 162.299 21.944 160.806 22.52C159.333 23.096 157.723 23.384 155.974 23.384ZM155.942 18.968C156.944 18.968 157.862 18.7973 158.694 18.456C159.547 18.1147 160.294 17.624 160.934 16.984C161.574 16.344 162.064 15.5867 162.406 14.712C162.768 13.8373 162.95 12.8667 162.95 11.8C162.95 10.7333 162.768 9.76267 162.406 8.888C162.064 8.01333 161.574 7.256 160.934 6.616C160.315 5.976 159.579 5.48533 158.726 5.144C157.872 4.80267 156.944 4.632 155.942 4.632C154.939 4.632 154.011 4.80267 153.158 5.144C152.326 5.48533 151.59 5.976 150.95 6.616C150.31 7.256 149.808 8.01333 149.446 8.888C149.104 9.76267 148.934 10.7333 148.934 11.8C148.934 12.8453 149.104 13.816 149.446 14.712C149.808 15.5867 150.299 16.344 150.918 16.984C151.558 17.624 152.304 18.1147 153.158 18.456C154.011 18.7973 154.939 18.968 155.942 18.968Z" fill="#323232"/>
</svg>
